HIERARCHY
ROOT pelvis
{
  OFFSET 0 100 0
  CHANNELS 6 Xposition Yposition Zposition Zrotation Xrotation Yrotation
  JOINT pelvis_right_femur
  {
    OFFSET -10.78128 -3.44521 -0.5502486
    CHANNELS 3 Zrotation Xrotation Yrotation
    JOINT right_femur_tibia
    {
      OFFSET -0.8047443 -44.0398 -0.1307829
      CHANNELS 3 Zrotation Xrotation Yrotation
      JOINT right_tibia_foot
      {
        OFFSET 3.006224 -47.83518 -5
        CHANNELS 3 Zrotation Xrotation Yrotation
        End Site
        {
          OFFSET 0 -5 15
        }
      }
    }
  }
  JOINT pelvis_left_femur
  {
    OFFSET 10.78128 -3.44521 -0.5502486
    CHANNELS 3 Zrotation Xrotation Yrotation
    JOINT left_femur_tibia
    {
      OFFSET 0.8047443 -44.0398 -0.1307829
      CHANNELS 3 Zrotation Xrotation Yrotation
      JOINT left_tibia_foot
      {
        OFFSET -4.370144 -48.10324 -4.275266
        CHANNELS 3 Zrotation Xrotation Yrotation
        End Site
        {
          OFFSET 0 -5 15
        }
      }
    }
  }
  JOINT pelvis_spine1
  {
    OFFSET 0 6.468898 -3.129235
    CHANNELS 3 Zrotation Xrotation Yrotation
    JOINT spine1
    {
      OFFSET 0 23.15396 4.99043
      CHANNELS 3 Zrotation Xrotation Yrotation
      JOINT spine2
      {
        OFFSET 0 20.79997 -5.064912
        CHANNELS 3 Zrotation Xrotation Yrotation
        JOINT neck
        {
          OFFSET 0 14.38658 9.616178
          CHANNELS 3 Zrotation Xrotation Yrotation
          End Site
          {
            OFFSET 0 20 0
          }
        }
      }
      JOINT right_manubrium
      {
        OFFSET -5.722621 16.35077 3.967754
        CHANNELS 3 Zrotation Xrotation Yrotation
        JOINT right_clavicle
        {
          OFFSET -13.16364 1.694482 -4.693211
          CHANNELS 3 Zrotation Xrotation Yrotation
          JOINT right_humerus
          {
            OFFSET -28.5034 -0.3100689 -2.792744
            CHANNELS 3 Zrotation Xrotation Yrotation
            JOINT right_radius
            {
              OFFSET -25.15693 0.02248979 -1.271978
              CHANNELS 3 Zrotation Xrotation Yrotation
              End Site
              {
                OFFSET -15 0 0
              }
            }
          }
        }
      }
      JOINT left_manubrium
      {
        OFFSET 5.722621 16.35077 3.967754
        CHANNELS 3 Zrotation Xrotation Yrotation
        JOINT left_clavicle
        {
          OFFSET 13.16364 1.694482 -4.693211
          CHANNELS 3 Zrotation Xrotation Yrotation
          JOINT left_humerus
          {
            OFFSET 29.39168 -1.063119 -2.237045
            CHANNELS 3 Zrotation Xrotation Yrotation
            JOINT left_radius
            {
              OFFSET 24.59957 -0.9528479 0.9047498
              CHANNELS 3 Zrotation Xrotation Yrotation
              End Site
              {
                OFFSET 15 -0 -0
              }
            }
          }
        }
      }
    }
  }
}
MOTION
Frames: 11
Frame Time: 0.0416666666667
-16.57536 106.1835 2855.464 0.06461569 -5.602876 -7.052278 1.386727 -19.94117 2.460904 -0 26.69111 -0 -4.446928 -6.319478 -6.135512 -5.184294 12.6733 -13.01126 -0 10.33199 -0 0.5793064 -18.85661 17.87184 -1.644338 -0.4746961 4.745432 2.598844 11.23232 -8.138469 0.6691066 20.70844 7.433205 3.099397 -25.42378 8.722909 1.721538 -20.10916 12.79869 90.89281 32.58785 -19.46499 -0 0 11.99677 -14.08132 9.057711 7.668656 4.842281 -21.79319 -2.121667 -87.52232 17.01471 17.49817 0 0 -20.45833 11.62028 9.572844 -2.412644
-16.9997 105.3552 2859.827 0.113485 -3.776483 -6.842955 2.264251 -24.00042 2.352689 -0 19.87587 -0 -4.624673 -6.511008 -5.327661 -5.362491 14.03173 -13.46486 -0 10.3385 -0 1.646371 -20.08849 17.93955 -1.631434 -0.5019958 4.325784 2.935048 10.929 -8.398036 0.6548495 20.49008 7.912569 3.282954 -26.00823 9.273281 1.80142 -19.67732 12.7446 91.42637 33.10526 -20.62721 -0 0 11.13046 -12.69895 8.854766 6.876757 5.27294 -22.10564 -2.04268 -86.8742 17.03937 15.92234 0 0 -22.9194 12.49593 9.116303 -3.492989
-17.47143 104.4453 2864.441 0.09368663 -2.162046 -6.592598 2.968519 -27.52942 1.636559 -0 14.94821 -0 -5.027307 -4.456597 -4.209347 -5.592792 14.98814 -13.16316 -0 11.10722 -0 1.967932 -21.17518 17.39969 -1.661068 -0.5580569 3.949116 3.23014 10.56891 -8.549279 0.6375463 20.28446 8.358191 3.459081 -26.49265 9.768252 1.94689 -19.21709 12.65269 91.67043 33.75564 -21.47975 -0 0 10.32979 -11.47507 8.704962 6.312346 5.724746 -22.36338 -1.953707 -86.27028 17.14463 14.4752 0 0 -25.35634 13.23143 8.631198 -4.304679
-18.03501 103.5129 2869.511 0.03597125 -1.238132 -6.216069 3.246036 -29.66538 0.5846453 -0 11.75198 -0 -5.399863 -1.727382 -3.505208 -5.680918 15.78418 -12.14558 -0 12.75909 -0 1.065356 -21.80939 16.0607 -1.697401 -0.6237675 3.637804 3.463085 10.22143 -8.613451 0.6143654 20.08731 8.727659 3.619087 -26.84207 10.14249 2.140828 -18.74642 12.54616 91.71099 34.43368 -22.08692 -0 0 9.586253 -10.5564 8.668212 6.014879 6.155261 -22.58788 -1.897333 -85.73485 17.30018 13.24855 0 0 -27.58192 13.73091 8.140776 -4.735335
-18.71765 102.6124 2875.129 -0.05383421 -1.092563 -5.73446 3.277387 -30.04126 -0.2533636 -0 9.960276 -0 -5.534921 0.2760319 -3.555827 -5.509291 16.47096 -10.80446 -0 15.50922 -0 -0.7209239 -21.54942 14.22867 -1.703311 -0.680404 3.410335 3.621955 9.953048 -8.629831 0.5838303 19.89451 8.986385 3.755688 -27.04179 10.34685 2.363301 -18.29435 12.44881 91.65161 35.01378 -22.54322 -0 0 8.917683 -10.04285 8.784898 5.97646 6.51959 -22.79304 -1.901926 -85.30408 17.47895 12.32732 0 0 -29.38486 13.92468 7.680732 -4.721726
-19.52608 101.8548 2881.29 -0.2116277 -1.557585 -5.241899 3.425862 -28.88411 -0.5394255 -0 9.384625 -0 -5.533659 1.252626 -4.14766 -5.084448 16.92713 -9.491433 -0 19.64415 -0 -2.653194 -20.1357 12.48155 -1.657469 -0.7122252 3.273338 3.707218 9.806419 -8.638157 0.5478961 19.7101 9.120283 3.864694 -27.10037 10.36958 2.594782 -17.89514 12.37804 91.57681 35.39481 -22.92575 -0 0 8.362899 -9.947669 9.052026 6.143217 6.778621 -22.9756 -1.974496 -85.01169 17.66408 11.75841 0 0 -30.59763 13.80162 7.288626 -4.285427
-20.45425 101.4065 2887.907 -0.4797127 -2.44833 -4.876781 3.933284 -26.43063 -0.2107357 -0 9.910589 -0 -5.666285 1.365808 -4.899333 -4.465696 16.85787 -8.420808 -0 25.50727 -0 -4.115464 -17.5362 11.35318 -1.561797 -0.7077152 3.227339 3.724327 9.798037 -8.660325 0.5120951 19.55358 9.132321 3.942422 -27.03598 10.23221 2.81535 -17.58953 12.34367 91.52483 35.52089 -23.24597 -0 0 7.981157 -10.21268 9.4224 6.43826 6.898529 -23.11263 -2.10295 -84.88782 17.84723 11.56209 0 0 -31.10418 13.40572 7.00416 -3.524065
-21.48029 101.4629 2894.784 -0.88108 -3.594754 -4.801593 4.860236 -22.76291 0.6758149 -0 11.39843 -0 -6.145017 0.7401446 -5.483157 -3.732539 15.72437 -7.741943 -0 33.35043 -0 -4.787461 -13.93195 11.22282 -1.435558 -0.6593355 3.277181 3.675121 9.928126 -8.692772 0.484427 19.45734 9.030533 3.983903 -26.8627 9.970206 3.012049 -17.42294 12.35053 91.47793 35.38207 -23.43767 -0 0 7.85012 -10.74639 9.827727 6.788326 6.848005 -23.16504 -2.263283 -84.97185 18.03035 11.76894 0 0 -30.803 12.8079 6.874744 -2.563583
-22.55076 102.1612 2901.608 -1.343889 -4.828719 -5.139335 5.981277 -17.9655 1.851817 -0 13.30117 -0 -6.944391 -0.4894381 -5.652191 -3.039483 12.78533 -7.443685 -0 42.77112 -0 -4.757697 -9.938647 12.15898 -1.309315 -0.5678127 3.437106 3.553789 10.18265 -8.705342 0.4731039 19.45871 8.818794 3.981831 -26.58346 9.615105 3.181782 -17.43619 12.39768 91.36456 35.01428 -23.37053 -0 0 8.051247 -11.46533 10.20138 7.149622 6.607093 -23.08776 -2.423542 -85.31311 18.22546 12.43255 0 0 -29.60163 12.07653 6.953123 -1.512457
-23.57597 103.4262 2908.061 -1.62254 -5.984903 -5.85129 6.754475 -12.36802 2.797012 -0 14.40569 -0 -7.664959 -2.075614 -5.321592 -2.582603 7.530993 -7.229696 -0 51.92424 -0 -4.514137 -6.719525 13.66267 -1.22579 -0.4545346 3.724201 3.349904 10.51863 -8.644935 0.4829013 19.58722 8.498428 3.926942 -26.18974 9.187978 3.324003 -17.64578 12.47144 91.07018 34.50727 -22.88445 -0 0 8.633719 -12.32837 10.49106 7.531768 6.195622 -22.85119 -2.54356 -85.93804 18.44629 13.58204 0 0 -27.50223 11.25939 7.273987 -0.4383592
-24.48009 104.9196 2914.008 -1.496888 -6.836427 -6.709543 6.795546 -6.754167 3.167465 -0 13.77824 -0 -7.895399 -3.76844 -4.617418 -2.313181 0.4824868 -6.789061 -0 57.79746 -0 -4.371573 -5.190742 14.85925 -1.232666 -0.3664058 4.138324 3.059914 10.85491 -8.456261 0.5113435 19.84556 8.085907 3.814257 -25.67586 8.711593 3.427131 -18.02579 12.54154 90.48456 33.99431 -21.86573 -0 0 9.570697 -13.33079 10.66313 7.989998 5.696154 -22.46797 -2.582654 -86.79334 18.68983 15.13418 0 0 -24.74676 10.39503 7.810309 0.615351
